# xmcd CD database file
#
# Track frame offsets:
#	150
#	183479
#	284393
#
# Disc length: 4428 seconds
#
# Revision: 0
# Processed by: cddbd v1.5.2PL0 Copyright (c) Steve Scherf et al.
# Submitted via: CDex 1.70beta2
#
DISCID=26114a03
DTITLE=Herb Robertson - Party Enders
DYEAR=2010
DGENRE=Jazz
TTITLE0=Elastic Dreams
TTITLE1=Party Ender
TTITLE2=Outer Boroughs
EXTD=YEAR: 2010
EXTT0=
EXTT1=
EXTT2=
PLAYORDER=
